<svg viewBox="0 0 306.32 72.47" xmlns="http://www.w3.org/2000/svg"><g fill="#fff"><path d="m70.5 36.15c0-13.54 10.8-22.66 24.79-22.66 10.19 0 16.12 5.17 19.39 10.72l-8.52 3.95a12.78 12.78 0 0 0 -10.87-6.38c-8.52 0-14.6 6.08-14.6 14.37s6.16 14.37 14.6 14.37a12.62 12.62 0 0 0 10.87-6.31l8.52 3.8c-3.27 5.4-9.2 10.72-19.39 10.72-13.99 0-24.79-9.12-24.79-22.58z"/><path d="m153.62 58.28-3-7.46h-20.04l-3 7.46h-11.23l18-43.85h12.47l18 43.88zm-13-34.53-7.3 18.86h14.53z"/><path d="m196.51 58-6.09-11h-9.2v11h-9.81v-43.3h21.52c9.59 0 15.9 6.85 15.52 16.12-.31 7.69-2.66 10.88-7.53 13.85l8.44 13.33zm1.9-27.15a6.47 6.47 0 0 0 -6.85-6.69h-10.34v13.43h10.34a6.49 6.49 0 0 0 6.85-6.77z"/><path d="m213.31 36.38c0-13.84 10.8-22.59 24-22.59 9.36 0 15.21 4.56 18.56 9.73l-7.87 4.19a13.28 13.28 0 0 0 -10.66-5.71c-8.21 0-14.14 6.09-14.14 14.3s5.93 14.3 14.14 14.3a15.15 15.15 0 0 0 9.51-3.35v-5.25h-11.85v-8.13h21.44v16.73a25.54 25.54 0 0 1 -19.09 8.21c-13.16.08-24.04-8.75-24.04-22.43z"/><path d="m261.07 36.38c0-13.31 9.51-22.82 22.66-22.82s22.59 9.51 22.59 22.82-9.51 22.81-22.59 22.81-22.66-9.58-22.66-22.81zm35.74 0c0-7.38-5.09-12.93-13.08-12.93s-13.15 5.55-13.15 12.93 5.09 12.92 13.15 12.92 13.08-5.62 13.08-12.92z"/><path d="m56.58 31.59c-.15.83-.45 1.67-.68 2.5a40.75 40.75 0 0 1 -4.34 9l-5.78 7.91-15 20.23a3.05 3.05 0 0 1 -4.25.69 3 3 0 0 1 -.69-.68l-15.95-20.8-1.29-1.67-2.67-3.42a29.66 29.66 0 0 1 -3-4.56l-.69-1.37a29.33 29.33 0 0 1 -2.2-9.13 17.15 17.15 0 0 1 -.04-1.9 28.43 28.43 0 0 1 56.51-4.39h-16.13v-5.7l-12-6.89-12.48 6.82-.08 19.32 12.55 6.92 11.94-7.18v-5.7z"/><path d="m40.38 24v-5.7l-12-6.89-1.38-.41c-8.44-7.07-15-5.09-18.33-3a28.41 28.41 0 0 1 47.76 16z"/><path d="m56.58 31.59c-.15.83-.45 1.67-.68 2.5a40.75 40.75 0 0 1 -4.34 9l-5.78 7.91-15 20.23a3.05 3.05 0 0 1 -4.25.69 3 3 0 0 1 -.69-.68l-15.95-20.8-1.29-1.67s9.12 4.41 19.84-4.26l11.87-7.22v-5.7z"/></g></svg>