<svg viewBox="0 0 513.38 1019" xmlns="http://www.w3.org/2000/svg"><path d="m447 981c0 20.58-198.8 37.34-447 38v-76c248.2.67 447 17.43 447 38z" fill="#35488b" opacity=".21"/><path d="m297.32 310.55h-222.65v-65h104.93a139 139 0 0 1 117.72 65z" fill="#cc5606"/><path d="m74.66 245.55h.01v263.48h-.01z" fill="#cc5606"/><path d="m74.66 310.55v198.45z" fill="#ff6700"/><path d="m440.76 577-70.55-200.41-4.49-12.74-8-22.66c-6.44-18.28-24.71-30.64-45.32-30.64h-237.73v377.09a32.91 32.91 0 0 1 -32.9 32.9h-6.64v19.65a78.7 78.7 0 0 1 26.77 59.22v2.2a78.7 78.7 0 0 1 -26.77 59.22v19.67h112.8c-.08-1.62-.12-3.25-.12-4.88a116.68 116.68 0 0 1 103.31-116 105.19 105.19 0 0 1 32.63-5.16c61.71 0 111.74 53.23 111.74 118.89q0 3.6-.21 7.16h30.18a23.45 23.45 0 0 1 -23.46-23.46v-51a23.45 23.45 0 0 1 23.45-23.45h13.92l3.76-190.88a41.8 41.8 0 0 0 -2.37-14.72zm-296.21.82a23.53 23.53 0 0 1 -23.55-23.57v-172.33a23.52 23.52 0 0 1 23.52-23.53h156.75a23.53 23.53 0 0 1 15.07 5.46q.46.38.9.78a23.39 23.39 0 0 1 6.53 10.37l.48 1.57 23.44 76.47 28.91 94.29a23.53 23.53 0 0 1 -22.49 30.43zm245.37 81.4h-54.75a24.24 24.24 0 0 1 -24.23-24.22h79z" fill="#ff6700"/><path d="m443.15 782.6v97.9h-17.69a23.45 23.45 0 0 1 -23.46-23.45v-51a23.45 23.45 0 0 1 23.45-23.45z" fill="#35488b"/><path d="m493.4 446.69h-7.33v-16.39a66.53 66.53 0 0 0 -66.46-66.45h-53.89l4.49 12.74h49.4a53.77 53.77 0 0 1 53.71 53.71v16.39h-10.06a20 20 0 0 0 -20 20v80.22a20 20 0 0 0 20 20h30.14a20 20 0 0 0 20-20v-80.25a20 20 0 0 0 -20-19.97zm8.53 95.31a13.45 13.45 0 0 1 -13.45 13.45h-20.3a13.45 13.45 0 0 1 -13.45-13.45v-70.41a13.46 13.46 0 0 1 13.45-13.46h20.3a13.46 13.46 0 0 1 13.45 13.46z" fill="#233251"/><path d="m501.93 471.59v70.41a13.45 13.45 0 0 1 -13.45 13.45h-20.3a13.45 13.45 0 0 1 -13.45-13.45v-70.41a13.46 13.46 0 0 1 13.45-13.46h20.3a13.46 13.46 0 0 1 13.45 13.46z" fill="#86b1f2"/><path d="m347.69 453.06h-226.69v-71.14a23.52 23.52 0 0 1 23.52-23.53h156.75a23.53 23.53 0 0 1 15.07 5.46q.46.38.9.78a23.39 23.39 0 0 1 6.53 10.37l.48 1.57z" fill="#13375b"/><path d="m354.11 577.78h-209.56a23.53 23.53 0 0 1 -23.55-23.53v-101.19h226.69l28.91 94.29a23.53 23.53 0 0 1 -22.49 30.43z" fill="#355389"/><path d="m274.39 991.82c-3.28.28-6.61.42-10 .42-61.81 0-113.83-50.48-116.49-111.74-.08-1.62-.12-3.25-.12-4.88a116.68 116.68 0 0 1 103.31-116c-45.77 14.83-79.09 60.14-79.09 113.72q0 3.6.21 7.16c3.28 59.03 47.05 106.5 102.18 111.32z" fill="#13375b"/><path d="m74.66 509v178.64a32.91 32.91 0 0 1 -32.9 32.9l-41.76-.62v-719.92h75l-.33 245.55z" fill="#355389"/><path d="m74.66 245.55h.01v263.48h-.01z" fill="#355389"/><path d="m61.91 799.42v2.2a78.7 78.7 0 0 1 -26.77 59.22 78.46 78.46 0 0 1 -35.14 17.82v-156.28a78.46 78.46 0 0 1 35.13 17.81 78.7 78.7 0 0 1 26.78 59.23z" fill="#184655"/><path d="m283.75 754.45a105.19 105.19 0 0 0 -32.63 5.16c-45.8 14.84-79.12 60.15-79.12 113.73q0 3.6.21 7.16c3.28 59 47 106.47 102.18 111.32q4.64.42 9.36.42c59.45 0 108.06-49.4 111.53-111.74q.21-3.56.21-7.16c0-65.66-50.03-118.89-111.74-118.89zm54.18 126c-4.33 28.32-26.94 49.9-54.18 49.9s-49.86-21.58-54.19-49.9a64.79 64.79 0 0 1 -.76-9.92c0-33 24.6-59.82 54.95-59.82s54.94 26.78 54.94 59.82a64.79 64.79 0 0 1 -.76 9.97z" fill="#2c3a64"/><path d="m338.69 870.58a64.79 64.79 0 0 1 -.76 9.92c-4.33 28.32-26.94 49.9-54.18 49.9s-49.86-21.58-54.19-49.9a64.79 64.79 0 0 1 -.76-9.92c0-33 24.6-59.82 54.95-59.82s54.94 26.78 54.94 59.82z" fill="#35488b"/><path d="m389.92 635v24.23h-54.75a24.24 24.24 0 0 1 -24.23-24.23z" fill="#b75742"/></svg>