<svg viewBox="0 0 279.34 741.05" xmlns="http://www.w3.org/2000/svg"><path d="m126.87 153.21s-10 56.6-20.83 115.73c-11.83 64.28-24.75 131.54-27.19 132.38-4.69 1.62-11.71-7.69-14.93-15.49-2.58-6.28-7.7-54.81-5.11-88.33a165.78 165.78 0 0 1 2.27-19.06c4.47-21.22 5.1-96.1 19.09-108s46.7-17.23 46.7-17.23z" fill="#f4ac75"/><path d="m62 376.33s2.43 9.27-1.09 18.34-4.26 11.66 2.24 16.75 13.55 12.24 18.43 10.13 1.86-43.64 1.86-43.64z" fill="#f4ac75"/><path d="m81.79 741.05c6-3.69 2.6-31.18 2.6-31.18s-28.14-22.52-32-5.28-26.74 25-39.75 27.09c-9 1.45-11.77 6.43-12.63 9.37z" fill="#2c3a64"/><path d="m206.75 741.05c6-3.69 2.6-31.18 2.6-31.18s-28.14-22.52-32-5.28-26.74 25-39.75 27.09c-9 1.45-11.77 6.43-12.63 9.37z" fill="#2c3a64"/><path d="m167.64 421.87c-10 42.32-22.63 90.65-27.56 117.89-.58 3.16-1 6-1.39 8.58s-.58 4.77-.68 6.62c-2.62 51-42.95 167.71-50.17 170.43-11.16 4.21-28.74-4.74-37.94-7.67a7.9 7.9 0 0 1 -5.53-9c20-91.83 41.28-223.25 44-301.55 1.34-39.43 3.14-67.48 3.14-67.48s89.38-26.25 90 6.95c.15 12.9-6.07 42.24-13.87 75.23z" fill="#35488b"/><path d="m167.64 421.87c-10 42.32-22.63 90.65-27.56 117.89-.58 3.16-3.59 29.93-3.94 32.48l-17.23-195.69 24.43 2.25z" fill="#2c3a64"/><path d="m137.68 104.36v4.81s-1.31 15.06 17.23 17.26 32.59-5.87 32.09-17.49c-1.67-9-3.5-15.18-3.63-22.62a53.53 53.53 0 0 1 .66-9l-35.93-.72-10.58 1.73z" fill="#f4ac75"/><path d="m137.55 78.31.13 26.05a30.5 30.5 0 0 0 13 2.86c16.51 0 27.18-12.11 32.76-20.9a53.53 53.53 0 0 1 .66-9l-35.93-.72z" fill="#e19054"/><path d="m128.91 358.07 34.71 362.65s25.7 8.34 48.91 1.91c0 0 11.5-198.27 10.23-246.74s10.93-129.69-2.76-138.65-91.09 20.83-91.09 20.83z" fill="#35488b"/><path d="m135.45 91s46 9.29 51.37-19.45 14.89-46.91-14.27-54.06-36.92 2.75-41 11.91-7.93 58.41 3.9 61.6z" fill="#f4ac75"/><path d="m269.67 183.5s-17.7-46.77-31.25-56.7c-7.83-5.74-23.76-10.35-35.84-13.23-3.83-.91-7.26-1.64-9.93-2.19-3.47-.7-5.64-1.08-5.7-1.09s-.45 1.31-1.17 3.59c-4 6.19-17.68 10.88-29.15 10.14s-18.92-9.48-18.92-14.2l-2.56.79c-2.4.76-6.35 2.06-11.14 3.85-14.29 5.34-28.11 8.32-37.46 23.42-13.87 22.35-19.55 51.45-19.55 51.45s12.66 11.07 26.3 16.37a5.49 5.49 0 0 0 2 .12c-.89 122.2-6.46 141-3.82 141 0 0 14.72 16.18 53.21 15.74a287.28 287.28 0 0 0 39.14-2.94c30.88-4.58 39.62-11 39.5-14.16-.1-2.89-2.5-80.21-2.06-84.34 2-18.6 1.73-30.36 3.25-59.47 28.83-7.1 45.15-18.15 45.15-18.15z" fill="#ff6700"/><path d="m275.44 273.09s-53.77 30.67-96.59 37.48c0 0-8.5-11.06-5.89-15.84 1.95-3.58 62.46-42.52 62.79-43.73.81-3-12.37-32.46-18.2-53.3 18-1.54 41.08-8.41 49.7-12.7 7.51 26.14 17.83 67.3 8.19 88.09z" fill="#f4ac75"/><path d="m170.05 288.16s-6.44-4.93-11.39-5.66-13.3-3.88-11.94-.95 10.48 7.55 10.48 7.55z" fill="#f4ac75"/><path d="m157.69 320.72-25.18 3.08a5.75 5.75 0 0 1 -6.21-4.06l-17.23-57.13a5.76 5.76 0 0 1 4.82-7.38l25.18-3.07a5.75 5.75 0 0 1 6.21 4l17.23 57.13a5.76 5.76 0 0 1 -4.82 7.43z" fill="#2c3a64"/><path d="m148.77 321.81-25.18 3.08a5.76 5.76 0 0 1 -6.21-4.06l-17.23-57.13a5.76 5.76 0 0 1 4.82-7.38l25.18-3.08a5.78 5.78 0 0 1 6.22 4.06l17.22 57.13a5.75 5.75 0 0 1 -4.82 7.38z" fill="#233251"/><path d="m182.67 287.17s-4.48 2.77-7.67 1.94c-2.64-.7-4.95-.95-8-3-3.21-2.18-10.31.71-12.4 2.1-5.88 3.92-25.7 3.76-25.7 7.67s8.62 14.92 19.06 18.19 30.89-3.48 30.89-3.48z" fill="#f4ac75"/><path d="m203.63 15.58c.41-.48 1.35-.86 3.45-1a8.36 8.36 0 0 0 -3.92-1.12c-.44-3-2-8.23-7-9.51a6.41 6.41 0 0 1 3.05 4.63c-5.84-6.06-18.31-10.5-52.87-7.75-45.55 3.62-30.56 33.25-24.67 36.78s20.74-6.13 31.73-5.24 13.06 17 16.79 19.23 2.26-1.7 7.3-4 5.52 6.18 4.06 11.69 5.45 12.79 5.45 12.79l7-7.65c7-7.65 13.63-40.09 10.45-47z" fill="#35488b"/></svg>